<?xml version="1.0" encoding="UTF-8"?>
<svg width="700pt" height="700pt" version="1.1" viewBox="0 0 700 700" xmlns="http://www.w3.org/2000/svg" xmlns:xlink="http://www.w3.org/1999/xlink">
 <defs>
  <symbol id="t" overflow="visible">
   <path d="m3.6562-0.21875c-0.1875 0.09375-0.38672 0.16797-0.59375 0.21875-0.19922 0.050781-0.40625 0.078125-0.625 0.078125-0.66797 0-1.1992-0.17969-1.5938-0.54688-0.38672-0.375-0.57812-0.87891-0.57812-1.5156 0-0.64453 0.19141-1.1484 0.57812-1.5156 0.39453-0.375 0.92578-0.5625 1.5938-0.5625 0.21875 0 0.42578 0.027344 0.625 0.078125 0.20703 0.054687 0.40625 0.125 0.59375 0.21875v0.82812c-0.1875-0.125-0.375-0.21875-0.5625-0.28125-0.17969-0.0625-0.37109-0.09375-0.57812-0.09375-0.36719 0-0.65625 0.12109-0.875 0.35938-0.21094 0.23047-0.3125 0.55469-0.3125 0.96875 0 0.40625 0.10156 0.73047 0.3125 0.96875 0.21875 0.23047 0.50781 0.34375 0.875 0.34375 0.20703 0 0.39844-0.023437 0.57812-0.078125 0.1875-0.0625 0.375-0.16016 0.5625-0.29688z"/>
  </symbol>
  <symbol id="d" overflow="visible">
   <path d="m2.6875-2.1719c-0.085938-0.039063-0.16797-0.070313-0.25-0.09375-0.085938-0.019531-0.16797-0.03125-0.25-0.03125-0.25 0-0.44531 0.085937-0.57812 0.25-0.125 0.15625-0.1875 0.38281-0.1875 0.67188v1.375h-0.96875v-2.9844h0.96875v0.48438c0.11328-0.19531 0.25-0.33594 0.40625-0.42188 0.16406-0.09375 0.35938-0.14062 0.57812-0.14062h0.10938c0.039063 0 0.09375 0.007812 0.15625 0.015625z"/>
  </symbol>
  <symbol id="a" overflow="visible">
   <path d="m3.4375-1.5v0.26562h-2.2344c0.03125 0.23047 0.11328 0.40234 0.25 0.51562 0.13281 0.10547 0.32812 0.15625 0.57812 0.15625 0.20703 0 0.41406-0.023438 0.625-0.078125 0.20703-0.0625 0.42188-0.15625 0.64062-0.28125v0.73438c-0.21875 0.09375-0.44531 0.16406-0.67188 0.20312-0.23047 0.039062-0.45312 0.0625-0.67188 0.0625-0.54297 0-0.96484-0.13281-1.2656-0.40625-0.30469-0.28125-0.45312-0.67188-0.45312-1.1719 0-0.47656 0.14453-0.85938 0.4375-1.1406 0.30078-0.28125 0.70703-0.42188 1.2188-0.42188 0.46875 0 0.84375 0.14062 1.125 0.42188s0.42188 0.66406 0.42188 1.1406zm-0.96875-0.32812c0-0.17578-0.058594-0.31641-0.17188-0.42188-0.10547-0.11328-0.24219-0.17188-0.40625-0.17188-0.1875 0-0.33984 0.054687-0.45312 0.15625-0.11719 0.10547-0.1875 0.25-0.21875 0.4375z"/>
  </symbol>
  <symbol id="j" overflow="visible">
   <path d="m1.7969-1.3438c-0.19922 0-0.35156 0.039062-0.45312 0.10938-0.09375 0.0625-0.14062 0.16406-0.14062 0.29688 0 0.11719 0.035156 0.21094 0.10938 0.28125 0.082031 0.0625 0.19531 0.09375 0.34375 0.09375 0.17578 0 0.32812-0.0625 0.45312-0.1875s0.1875-0.28516 0.1875-0.48438v-0.10938zm1.4688-0.35938v1.7031h-0.96875v-0.4375c-0.125 0.17969-0.27344 0.30859-0.4375 0.39062-0.15625 0.082031-0.35156 0.125-0.57812 0.125-0.3125 0-0.57031-0.085938-0.76562-0.26562-0.1875-0.1875-0.28125-0.42188-0.28125-0.70312 0-0.35156 0.11719-0.61328 0.35938-0.78125 0.23828-0.16406 0.61719-0.25 1.1406-0.25h0.5625v-0.0625c0-0.15625-0.0625-0.26562-0.1875-0.32812-0.11719-0.070312-0.29688-0.10938-0.54688-0.10938-0.21094 0-0.40234 0.023437-0.57812 0.0625-0.17969 0.042969-0.33984 0.10156-0.48438 0.17188v-0.71875c0.19531-0.050781 0.39844-0.085938 0.60938-0.10938 0.20703-0.03125 0.41406-0.046875 0.625-0.046875 0.53906 0 0.92969 0.10938 1.1719 0.32812 0.23828 0.21094 0.35938 0.55469 0.35938 1.0312z"/>
  </symbol>
  <symbol id="c" overflow="visible">
   <path d="m1.5-3.8438v0.85938h0.98438v0.67188h-0.98438v1.2812c0 0.13672 0.023438 0.23047 0.078125 0.28125 0.0625 0.042969 0.17578 0.0625 0.34375 0.0625h0.48438v0.6875h-0.8125c-0.38672 0-0.65625-0.078125-0.8125-0.23438s-0.23438-0.42188-0.23438-0.79688v-1.2812h-0.46875v-0.67188h0.46875v-0.85938z"/>
  </symbol>
  <symbol id="i" overflow="visible">
   <path d="m2.5-2.5469v-1.6094h0.95312v4.1562h-0.95312v-0.4375c-0.13672 0.17969-0.28125 0.30859-0.4375 0.39062-0.15625 0.082031-0.33984 0.125-0.54688 0.125-0.375 0-0.68359-0.14453-0.92188-0.4375-0.23047-0.28906-0.34375-0.67188-0.34375-1.1406 0-0.45703 0.11328-0.83203 0.34375-1.125 0.23828-0.28906 0.54688-0.4375 0.92188-0.4375 0.19531 0 0.375 0.042969 0.53125 0.125 0.16406 0.085938 0.31641 0.21484 0.45312 0.39062zm-0.64062 1.9375c0.20703 0 0.36328-0.070313 0.46875-0.21875 0.11328-0.15625 0.17188-0.37891 0.17188-0.67188 0-0.28125-0.058594-0.49219-0.17188-0.64062-0.10547-0.15625-0.26172-0.23438-0.46875-0.23438-0.19922 0-0.35547 0.078125-0.46875 0.23438-0.10547 0.14844-0.15625 0.35938-0.15625 0.64062 0 0.29297 0.050781 0.51562 0.15625 0.67188 0.11328 0.14844 0.26953 0.21875 0.46875 0.21875z"/>
  </symbol>
  <symbol id="h" overflow="visible">
   <path d="m2.0469-0.60938c0.20703 0 0.36328-0.070313 0.46875-0.21875 0.11328-0.15625 0.17188-0.37891 0.17188-0.67188 0-0.28125-0.058594-0.49219-0.17188-0.64062-0.10547-0.15625-0.26172-0.23438-0.46875-0.23438-0.19922 0-0.35547 0.078125-0.46875 0.23438-0.10547 0.14844-0.15625 0.35938-0.15625 0.64062 0 0.29297 0.050781 0.51562 0.15625 0.67188 0.11328 0.14844 0.26953 0.21875 0.46875 0.21875zm-0.625-1.9375c0.125-0.17578 0.26562-0.30469 0.42188-0.39062 0.16406-0.082031 0.35156-0.125 0.5625-0.125 0.36328 0 0.66406 0.14844 0.90625 0.4375 0.23828 0.29297 0.35938 0.66797 0.35938 1.125 0 0.46875-0.12109 0.85156-0.35938 1.1406-0.24219 0.29297-0.54297 0.4375-0.90625 0.4375-0.21094 0-0.39844-0.042969-0.5625-0.125-0.15625-0.082031-0.29688-0.21094-0.42188-0.39062v0.4375h-0.96875v-4.1562h0.96875z"/>
  </symbol>
  <symbol id="g" overflow="visible">
   <path d="m0.0625-2.9844h0.95312l0.8125 2.0156 0.6875-2.0156h0.95312l-1.2656 3.2656c-0.125 0.33203-0.27344 0.56641-0.4375 0.70312-0.16797 0.13281-0.39062 0.20312-0.67188 0.20312h-0.54688v-0.64062h0.29688c0.16406 0 0.28516-0.027344 0.35938-0.078125 0.070313-0.054688 0.12891-0.14062 0.17188-0.26562l0.03125-0.09375z"/>
  </symbol>
  <symbol id="f" overflow="visible">
   <path d="m0.5-3.9844h1.0312v3.5938c0 0.5-0.13672 0.86719-0.40625 1.1094-0.27344 0.25-0.67969 0.375-1.2188 0.375h-0.21875v-0.78125h0.17188c0.20703 0 0.36328-0.0625 0.46875-0.1875 0.11328-0.11719 0.17188-0.28516 0.17188-0.51562z"/>
  </symbol>
  <symbol id="s" overflow="visible">
   <path d="m0.45312-2.9844h0.96875v2.9844h-0.96875zm0-1.1719h0.96875v0.78125h-0.96875z"/>
  </symbol>
  <symbol id="e" overflow="visible">
   <path d="m3.4688-1.8281v1.8281h-0.96875v-1.3906c0-0.25781-0.007812-0.4375-0.015625-0.53125-0.011719-0.10156-0.03125-0.17578-0.0625-0.21875-0.03125-0.0625-0.085937-0.10938-0.15625-0.14062-0.0625-0.039062-0.13281-0.0625-0.20312-0.0625-0.21094 0-0.37109 0.078125-0.48438 0.23438-0.10547 0.15625-0.15625 0.37109-0.15625 0.64062v1.4688h-0.96875v-2.9844h0.96875v0.4375c0.13281-0.17578 0.28516-0.30469 0.45312-0.39062 0.16406-0.082031 0.34375-0.125 0.53125-0.125 0.34375 0 0.60156 0.10938 0.78125 0.32812 0.1875 0.21094 0.28125 0.51172 0.28125 0.90625z"/>
  </symbol>
  <symbol id="b" overflow="visible">
   <path d="m1.875-2.375c-0.21094 0-0.37109 0.078125-0.48438 0.23438-0.10547 0.14844-0.15625 0.35938-0.15625 0.64062 0 0.29297 0.050781 0.51562 0.15625 0.67188 0.11328 0.14844 0.27344 0.21875 0.48438 0.21875 0.20703 0 0.36719-0.070313 0.48438-0.21875 0.11328-0.15625 0.17188-0.37891 0.17188-0.67188 0-0.28125-0.058594-0.49219-0.17188-0.64062-0.11719-0.15625-0.27734-0.23438-0.48438-0.23438zm0-0.6875c0.51953 0 0.92188 0.14062 1.2031 0.42188 0.28906 0.27344 0.4375 0.65234 0.4375 1.1406 0 0.5-0.14844 0.89062-0.4375 1.1719-0.28125 0.27344-0.68359 0.40625-1.2031 0.40625-0.51172 0-0.91406-0.13281-1.2031-0.40625-0.29297-0.28125-0.4375-0.67188-0.4375-1.1719 0-0.48828 0.14453-0.86719 0.4375-1.1406 0.28906-0.28125 0.69141-0.42188 1.2031-0.42188z"/>
  </symbol>
  <symbol id="r" overflow="visible">
   <path d="m2.4219-4.1562v0.625h-0.51562c-0.13672 0-0.23438 0.027344-0.29688 0.078125-0.054687 0.054687-0.078125 0.13672-0.078125 0.25v0.21875h0.82812v0.67188h-0.82812v2.3125h-0.95312v-2.3125h-0.46875v-0.67188h0.46875v-0.21875c0-0.32031 0.085937-0.5625 0.26562-0.71875 0.1875-0.15625 0.47266-0.23438 0.85938-0.23438z"/>
  </symbol>
  <symbol id="q" overflow="visible">
   <path d="m3.2344-2.5c0.11328-0.17578 0.25391-0.3125 0.42188-0.40625 0.16406-0.10156 0.35156-0.15625 0.5625-0.15625 0.33203 0 0.58594 0.10938 0.76562 0.32812 0.1875 0.21094 0.28125 0.51172 0.28125 0.90625v1.8281h-0.96875v-1.5625c0.007813-0.019531 0.015625-0.039062 0.015625-0.0625v-0.10938c0-0.21875-0.03125-0.375-0.09375-0.46875s-0.16406-0.14062-0.29688-0.14062c-0.1875 0-0.33594 0.078125-0.4375 0.23438-0.09375 0.14844-0.14062 0.35938-0.14062 0.64062v1.4688h-0.96875v-1.5625c0-0.33203-0.03125-0.54688-0.09375-0.64062-0.054688-0.09375-0.15234-0.14062-0.29688-0.14062-0.17969 0-0.32031 0.078125-0.42188 0.23438-0.09375 0.14844-0.14062 0.35938-0.14062 0.64062v1.4688h-0.96875v-2.9844h0.96875v0.4375c0.11328-0.17578 0.24219-0.30469 0.39062-0.39062 0.15625-0.082031 0.32812-0.125 0.51562-0.125 0.20703 0 0.39062 0.054688 0.54688 0.15625 0.15625 0.09375 0.27344 0.23047 0.35938 0.40625z"/>
  </symbol>
  <symbol id="p" overflow="visible">
   <path d="m3.4688-1.8281v1.8281h-0.96875v-1.3906c0-0.25781-0.007812-0.4375-0.015625-0.53125-0.011719-0.10156-0.03125-0.17578-0.0625-0.21875-0.03125-0.0625-0.085937-0.10938-0.15625-0.14062-0.0625-0.039062-0.13281-0.0625-0.20312-0.0625-0.21094 0-0.37109 0.078125-0.48438 0.23438-0.10547 0.15625-0.15625 0.37109-0.15625 0.64062v1.4688h-0.96875v-4.1562h0.96875v1.6094c0.13281-0.17578 0.28516-0.30469 0.45312-0.39062 0.16406-0.082031 0.34375-0.125 0.53125-0.125 0.34375 0 0.60156 0.10938 0.78125 0.32812 0.1875 0.21094 0.28125 0.51172 0.28125 0.90625z"/>
  </symbol>
  <symbol id="o" overflow="visible">
   <path d="m0.5-3.9844h1.1562l1.4375 2.7344v-2.7344h0.98438v3.9844h-1.1562l-1.4375-2.7344v2.7344h-0.98438z"/>
  </symbol>
  <symbol id="n" overflow="visible">
   <path d="m0.42188-1.1719v-1.8125h0.96875v0.29688 0.60938 0.48438c0 0.24219 0.003906 0.41797 0.015625 0.53125 0.007812 0.10547 0.03125 0.17969 0.0625 0.21875 0.039062 0.0625 0.09375 0.11719 0.15625 0.15625 0.0625 0.03125 0.13281 0.046875 0.21875 0.046875 0.19531 0 0.35156-0.078125 0.46875-0.23438 0.11328-0.15625 0.17188-0.36719 0.17188-0.64062v-1.4688h0.95312v2.9844h-0.95312v-0.4375c-0.14844 0.17969-0.30469 0.30859-0.46875 0.39062-0.15625 0.082031-0.33594 0.125-0.53125 0.125-0.34375 0-0.60938-0.10156-0.79688-0.3125-0.17969-0.21875-0.26562-0.53125-0.26562-0.9375z"/>
  </symbol>
  <symbol id="m" overflow="visible">
   <path d="m0.5-3.9844h1.7031c0.50781 0 0.89844 0.11719 1.1719 0.34375 0.26953 0.21875 0.40625 0.53906 0.40625 0.95312 0 0.41797-0.13672 0.74219-0.40625 0.96875-0.27344 0.21875-0.66406 0.32812-1.1719 0.32812h-0.67188v1.3906h-1.0312zm1.0312 0.75v1.1094h0.5625c0.19531 0 0.34766-0.046875 0.45312-0.14062 0.11328-0.10156 0.17188-0.24219 0.17188-0.42188 0-0.17578-0.058594-0.3125-0.17188-0.40625-0.10547-0.09375-0.25781-0.14062-0.45312-0.14062z"/>
  </symbol>
  <symbol id="l" overflow="visible">
   <path d="m0.45312-2.9844h0.96875v2.9375c0 0.39453-0.10156 0.69531-0.29688 0.90625-0.1875 0.21875-0.46484 0.32812-0.82812 0.32812h-0.48438v-0.64062h0.17188c0.17578 0 0.29688-0.042969 0.35938-0.125 0.070312-0.074219 0.10938-0.23047 0.10938-0.46875zm0-1.1719h0.96875v0.78125h-0.96875z"/>
  </symbol>
  <symbol id="k" overflow="visible">
   <path d="m2.875-2.8906v0.76562c-0.125-0.082031-0.25781-0.14453-0.39062-0.1875-0.13672-0.039062-0.27344-0.0625-0.40625-0.0625-0.27344 0-0.48047 0.078125-0.625 0.23438-0.14844 0.15625-0.21875 0.37109-0.21875 0.64062 0 0.28125 0.070313 0.5 0.21875 0.65625 0.14453 0.15625 0.35156 0.23438 0.625 0.23438 0.14453 0 0.28516-0.019531 0.42188-0.0625 0.13281-0.039063 0.25781-0.10938 0.375-0.20312v0.78125c-0.14844 0.0625-0.29688 0.10156-0.45312 0.125-0.15625 0.03125-0.3125 0.046875-0.46875 0.046875-0.54297 0-0.96484-0.13281-1.2656-0.40625-0.30469-0.28125-0.45312-0.67188-0.45312-1.1719 0-0.48828 0.14844-0.86719 0.45312-1.1406 0.30078-0.28125 0.72266-0.42188 1.2656-0.42188 0.15625 0 0.3125 0.015625 0.46875 0.046875 0.15625 0.023437 0.30469 0.0625 0.45312 0.125z"/>
  </symbol>
 </defs>
 <g>
  <path d="m250.57 388.72c-45.105 0-79.613-14.219-102.81-42.461-24.949-30.328-35.723-75.676-29.531-124.4 0.5-2.8789 3.1797-4.8594 6.0781-4.4883 2.9023 0.36719 5 2.9531 4.7617 5.8672-5.7969 45.75 4.0898 88.059 27.148 116.08 14.414 17.633 34.102 29.348 58.219 34.805 19.688 4.4531 43.07 4.8672 69.422 1.2344 7.7969-1.0938 46.594-7.9297 45.457-37.582l-0.003906 0.003907c-0.11328-3.0234 2.2422-5.5625 5.2617-5.6797 3.0195-0.11328 5.5625 2.2422 5.6758 5.2617 1.1602 30.266-27.586 45.074-54.883 48.836-11.527 1.6367-23.152 2.4805-34.793 2.5273z"/>
  <path d="m448.91 388.72c-11.633-0.046875-23.25-0.89062-34.77-2.5273-27.344-3.7617-56.055-18.594-54.883-48.836 0.11328-3.0195 2.6562-5.375 5.6758-5.2617 3.0195 0.11719 5.375 2.6562 5.2617 5.6797-1.0938 29.652 37.656 36.508 45.445 37.582 26.348 3.6328 49.711 3.2148 69.43-1.2344 24.148-5.4688 43.75-17.172 58.266-34.805 23.047-28.023 32.945-70.328 27.137-116.08v-0.003906c-0.19531-1.4453 0.19531-2.9062 1.082-4.0625s2.1992-1.9102 3.6484-2.0938c1.4453-0.18359 2.9023 0.21875 4.0547 1.1133 1.1484 0.89844 1.8906 2.2188 2.0625 3.6641 6.1797 48.727-4.582 94.062-29.531 124.4-23.254 28.242-57.762 42.461-102.88 42.461z"/>
  <path d="m189.95 547.43c-2.9648 0-5.3867-2.3555-5.4688-5.3164-1.6836-59.379-11.43-139-29.391-183.03-0.74219-1.8281-1.5195-3.3477-2.3516-4.9648-0.63281-1.2461-1.2891-2.5273-1.9805-4.0352v-0.003906c-1.1641-2.7266 0.058593-5.8828 2.7539-7.1172 2.6992-1.2344 5.8867-0.09375 7.1875 2.5703 0.58984 1.2891 1.1719 2.4062 1.7734 3.5977 0.89844 1.75 1.8281 3.5664 2.7461 5.8203 8.8164 21.602 16.406 53.004 21.875 90.781v-0.003906c4.293 30.102 7.0234 60.402 8.1797 90.781h309.89c1.1602-30.363 3.8906-60.645 8.1797-90.727 5.4688-37.801 13.039-69.203 21.875-90.781 1.6836-4.1016 3.1172-7.4492 4.5273-10.512v0.003906c1.3438-2.5859 4.4805-3.6641 7.1289-2.4492 2.6523 1.2109 3.8828 4.2891 2.8047 6.9961-1.3359 2.9297-2.7109 6.1367-4.375 10.094-17.949 44.012-27.695 123.59-29.391 183.02v0.003906c-0.082031 2.9609-2.5078 5.3164-5.4688 5.3164z"/>
  <path d="m272.34 82.031h-0.51562c-1.4492-0.12891-2.7891-0.83203-3.7188-1.9531s-1.375-2.5703-1.2344-4.0195l5.4688-59.062c0.26172-2.8203 2.6328-4.9766 5.4688-4.9648h145.47c2.7969-0.019531 5.1562 2.0781 5.4688 4.8555l6.5625 58.328v0.003906c0.33984 3.0195-1.8359 5.7422-4.8555 6.0781-3.0195 0.33984-5.7422-1.8359-6.082-4.8555l-5.9844-53.473h-135.62l-4.9531 54.098c-0.26172 2.8203-2.6328 4.9766-5.4688 4.9648z"/>
  <path d="m122.5 117.03c-1.1836 0-2.3359-0.38281-3.2812-1.0938-2.418-1.8125-2.9062-5.2383-1.0938-7.6562 21.711-29.531 55.859-51.637 98.723-63.777 32.188-9.1211 57.684-9.5039 58.777-9.5039 3.0195-0.019531 5.4844 2.4141 5.5 5.4375 0.019531 3.0195-2.4141 5.4805-5.4336 5.5-19.016 0.82031-37.867 3.9023-56.152 9.1758-28.133 8.0078-67.059 24.863-92.664 59.73-1.0312 1.3789-2.6523 2.1875-4.375 2.1875z"/>
  <path d="m576.41 117.03c-1.7227 0-3.3438-0.80859-4.375-2.1875-25.57-34.824-63.602-51.582-91-59.512-17.723-5.2148-36.012-8.25-54.469-9.0352-3.0195 0-5.4688-2.4453-5.4688-5.4688 0-3.0195 2.4492-5.4688 5.4688-5.4688 1.0273 0 25.715 0.29688 57.117 9.3281 41.824 12.035 75.391 34.062 97.102 63.594 1.2422 1.6562 1.4414 3.875 0.51562 5.7266-0.92578 1.8516-2.8203 3.0234-4.8906 3.0234z"/>
  <path d="m216.56 497.66c-3.0195 0-5.4688-2.4492-5.4688-5.4688v-21.875c0-16.766 5.6016-30.297 16.656-40.219 24.906-22.344 68.492-17.914 70.34-17.75 1.4609 0.13281 2.8086 0.84766 3.7383 1.9844 0.92578 1.1328 1.3594 2.5938 1.2031 4.0508-0.16016 1.4609-0.89453 2.793-2.0469 3.7031-1.1523 0.91016-2.6211 1.3164-4.0742 1.1328-0.625-0.066406-40.711-4.0234-61.883 15.008-8.6211 7.7852-12.996 18.57-12.996 32.09v21.875c0 1.4492-0.57422 2.8398-1.6016 3.8672-1.0273 1.0273-2.418 1.6016-3.8672 1.6016z"/>
  <path d="m483.44 497.66c-3.0195 0-5.4688-2.4492-5.4688-5.4688v-21.875c0-13.52-4.375-24.305-12.992-32.059-21.23-19.086-61.492-15.051-61.895-15.008l-0.003906 0.003906c-2.9609 0.25-5.5781-1.9102-5.8984-4.8672-0.31641-2.9531 1.7812-5.6211 4.7305-6.0078 1.8477-0.19531 45.457-4.625 70.34 17.719 11.055 9.9219 16.656 23.453 16.656 40.219v21.875c0 1.4492-0.57422 2.8398-1.6016 3.8672-1.0273 1.0273-2.418 1.6016-3.8672 1.6016z"/>
  <path d="m109.38 312.33c-8.2227 0.042969-16.383-1.4414-24.062-4.375-2-0.875-3.2891-2.8516-3.2812-5.0312v-176.05c0-1.7617 0.84766-3.4141 2.2734-4.4414 0.63281-0.44922 15.707-11.156 39.09-16.57 21.645-5.0195 54.754-6.2344 89.59 16.406 2.5312 1.6484 3.2461 5.0391 1.5977 7.5703-1.6484 2.5312-5.0352 3.2461-7.5664 1.5977-53.531-34.805-103.01-8.3906-114.05-1.5977v169.2c6.2773 1.8281 20.605 4.6797 35.656-1.1719 1.3594-0.55469 2.8828-0.54297 4.2305 0.035156 1.3477 0.58203 2.4102 1.6797 2.9414 3.0469s0.48828 2.8906-0.11328 4.2305c-0.60547 1.3359-1.7227 2.375-3.0977 2.8828-7.4062 2.8555-15.277 4.3008-23.211 4.2656z"/>
  <path d="m590.62 312.33c-7.9219 0.03125-15.785-1.4141-23.176-4.2656-2.7617-1.1289-4.1055-4.2617-3.0273-7.043 1.082-2.7773 4.1875-4.1797 6.9844-3.1523 15.16 5.8945 29.398 3.0312 35.656 1.1914v-169.22c-10.316-6.2227-21.562-10.754-33.312-13.422-28.328-6.4414-55.484-1.3789-80.73 15.039-2.5312 1.6484-5.9219 0.93359-7.5703-1.5977-1.6484-2.5312-0.93359-5.918 1.5977-7.5664 34.836-22.664 67.945-21.449 89.59-16.406 23.383 5.4141 38.457 16.121 39.09 16.57 1.4102 1.0312 2.2422 2.6719 2.2422 4.418v176.09c0.007812 2.1797-1.2812 4.1602-3.2812 5.0312-7.6836 2.9219-15.844 4.3906-24.062 4.332z"/>
  <path d="m350 320.47c-3.0195 0-5.4688-2.4492-5.4688-5.4688v-92.969c0-3.0195 2.4492-5.4688 5.4688-5.4688s5.4688 2.4492 5.4688 5.4688v92.969c0 1.4492-0.57422 2.8398-1.6016 3.8672-1.0273 1.0273-2.418 1.6016-3.8672 1.6016z"/>
  <path d="m203.97 343.07c-1.4883-2.5781-1.2773-5.7969 0.53516-8.1602s4.8672-3.4023 7.7422-2.6328c2.875 0.76953 5.0039 3.1953 5.3945 6.1445 0.39062 2.9531-1.0312 5.8477-3.6094 7.3398-1.6914 0.97656-3.6992 1.2422-5.5898 0.73828-1.8867-0.50391-3.4961-1.7383-4.4727-3.4297z"/>
  <path d="m483.97 343.07c-1.4883-2.5781-1.2773-5.7969 0.53516-8.1602s4.8672-3.4023 7.7422-2.6328c2.875 0.76953 5.0039 3.1953 5.3945 6.1445 0.39062 2.9531-1.0312 5.8477-3.6094 7.3398-1.6914 0.97656-3.6992 1.2422-5.5898 0.73828-1.8867-0.50391-3.4961-1.7383-4.4727-3.4297z"/>
  <path d="m298.24 165.34c-6.9961-0.066406-13.965-0.90625-20.781-2.5078-11.777-2.7617-23.168-6.9844-33.906-12.566-1.2734-0.69531-2.2148-1.8672-2.625-3.2617-0.40625-1.3945-0.24609-2.8906 0.44922-4.1641 1.4492-2.6523 4.7773-3.625 7.4258-2.1758 0.53516 0.29688 54.578 29.301 79.777 2.1875h0.003907c2.082-2.0625 5.418-2.1133 7.5664-0.12109 2.1484 1.9961 2.3398 5.3281 0.4375 7.5586-9.3516 9.9727-22.379 15.051-38.348 15.051z"/>
  <path d="m402.85 165.34c-15.969 0-28.996-5.0742-38.281-15.062-1.0625-1.0469-1.6484-2.4844-1.625-3.9727 0.023438-1.4922 0.65625-2.9062 1.7461-3.9219 1.0938-1.0156 2.5508-1.5391 4.0391-1.4531 1.4883 0.085937 2.8789 0.77734 3.8438 1.9102 25.254 27.191 79.23-1.8828 79.777-2.1875 2.6523-1.4492 5.9766-0.47656 7.4297 2.1758 1.4492 2.6523 0.47266 5.9766-2.1797 7.4258-10.734 5.5859-22.125 9.8047-33.906 12.57-6.832 1.6094-13.824 2.4531-20.844 2.5156z"/>
  <path d="m348.91 473.59c-3.0195 0-5.4688-2.4492-5.4688-5.4688v-17.5c0-3.0195 2.4492-5.4688 5.4688-5.4688s5.4688 2.4492 5.4688 5.4688v17.5c0 1.4492-0.57422 2.8398-1.6016 3.8672-1.0273 1.0273-2.418 1.6016-3.8672 1.6016z"/>
  <path d="m402.26 503.96c-26.25 0-36.094-14.438-36.727-15.312-1.5586-2.5156-0.83594-5.8125 1.6328-7.4453 2.4688-1.6289 5.7891-1.0039 7.4883 1.418 0.79688 1.0938 17.859 24.25 73.578-1.9141 2.7344-1.2852 5.9961-0.10547 7.2773 2.6289 1.2852 2.7383 0.10547 5.9961-2.6289 7.2812-21.273 9.9531-37.879 13.344-50.621 13.344z"/>
  <path d="m297.74 503.96c-12.742 0-29.344-3.3906-50.617-13.375l-0.003906-0.003906c-2.7344-1.2812-3.9141-4.5391-2.6289-7.2773 1.2812-2.7383 4.543-3.9141 7.2773-2.6289 55.879 26.25 72.887 2.9102 73.578 1.9023 1.6562-2.5078 5.0273-3.207 7.5469-1.5664 1.2344 0.79688 2.1016 2.0586 2.3984 3.5 0.29297 1.4375-0.003907 2.9375-0.82422 4.1562-0.58984 0.85547-10.457 15.293-36.727 15.293z"/>
  <path d="m508.05 271.25c-2.5625 0-4.7773-1.7773-5.3359-4.2773-0.097657-0.42578-10.238-43.344-48.355-51.887-2.5312-0.56641-4.3164-2.8281-4.2734-5.4219 0.039063-2.5898 1.8906-4.7969 4.4375-5.2852 1.75-0.33984 42.918-8.8164 48.125-51.91 0.32422-2.6992 2.5859-4.75 5.3047-4.8125h0.12109c2.6719 0 4.9531 1.9336 5.3906 4.5703 1.7578 8.4805 4.8516 16.625 9.1641 24.129 9.1992 15.926 22.258 25.344 38.805 27.988h0.003906c2.6172 0.41016 4.5625 2.6289 4.625 5.2773 0.0625 2.6484-1.7812 4.957-4.375 5.4883-1.6953 0.35156-41.781 9.3516-48.211 51.492-0.39453 2.6016-2.5859 4.5586-5.2188 4.6484zm-35.984-61.445c18.703 9.2539 29.465 25.562 35.297 37.996 5.4297-13.117 14.688-24.289 26.566-32.059 3.0312-2.0312 6.1953-3.8594 9.4727-5.4688-12.449-5.6562-22.773-15.398-30.43-28.777-1.6094-2.8047-3.0703-5.6914-4.375-8.6523-5.3047 12.746-14.352 23.582-25.945 31.074-3.375 2.2227-6.9141 4.1914-10.586 5.8867z"/>
  <path d="m616.52 377.17c-0.50781 0.003906-1.0156-0.066407-1.5078-0.20703l-27.41-7.8203c-2.9062-0.82812-4.5898-3.8555-3.7617-6.7578 0.82812-2.9062 3.8555-4.5898 6.7578-3.7656l27.422 7.7891c2.625 0.74609 4.3008 3.3125 3.9219 6.0156-0.375 2.707-2.6914 4.7148-5.4219 4.7148z"/>
  <path d="m580.46 437.37c-1.4805 0-2.8984-0.59766-3.9258-1.6602l-19.82-20.477c-2.1133-2.168-2.0703-5.6406 0.097656-7.7539 2.168-2.1133 5.6406-2.0703 7.7539 0.097657l19.828 20.484 0.003906 0.003906c1.5195 1.5781 1.9531 3.9102 1.0977 5.9297-0.85547 2.0156-2.832 3.3281-5.0234 3.332z"/>
  <path d="m610.39 343.44h-0.078125l-16.648-0.27344c-1.4492-0.011718-2.8359-0.59766-3.8516-1.6328-1.0195-1.0352-1.582-2.4297-1.5703-3.8789 0.023437-3.0195 2.4922-5.4492 5.5117-5.4258h0.085938l16.648 0.27344c3.0195 0.023438 5.4492 2.4922 5.4258 5.5117-0.027343 3.0195-2.4922 5.4492-5.5156 5.4258z"/>
  <path d="m547.64 448.09c-1.9844 0-3.8164-1.0742-4.7812-2.8086l-8.4219-15.137c-0.70312-1.2695-0.875-2.7656-0.47656-4.1602 0.39844-1.3945 1.332-2.5742 2.6016-3.2773 2.6367-1.4688 5.9688-0.51953 7.4375 2.1211l8.4219 15.137c0.94141 1.6953 0.91406 3.7578-0.066406 5.4297-0.98438 1.6719-2.7773 2.6953-4.7148 2.6953z"/>
  <path d="m593.91 403.1c-0.98828 0-1.9609-0.26953-2.8125-0.77734l-14.852-8.8906c-2.5039-1.5859-3.2891-4.8828-1.7656-7.4258 1.5195-2.5469 4.793-3.4141 7.375-1.9609l14.863 8.8906 0.003906 0.003906c2.1094 1.2617 3.1172 3.7773 2.4609 6.1484s-2.8125 4.0117-5.2734 4.0117z"/>
  <path d="m84.219 377.17c-2.7773 0.066406-5.1641-1.9609-5.5469-4.7109-0.38672-2.7539 1.3555-5.3555 4.0469-6.0508l27.422-7.8203c2.9062-0.82813 5.9336 0.85547 6.7578 3.7617 0.82812 2.9062-0.85547 5.9336-3.7617 6.7617l-27.422 7.8203h0.003906c-0.48828 0.14844-0.99219 0.23047-1.5 0.23828z"/>
  <path d="m132.34 424.38c-2.2305 0-4.2383-1.3555-5.0703-3.4219-0.83594-2.0703-0.33203-4.4375 1.2734-5.9844l7.7656-7.4805c2.1758-2.0977 5.6367-2.0352 7.7344 0.14062 2.0977 2.1758 2.0312 5.6367-0.14062 7.7344l-7.7656 7.4805c-1.0195 0.98047-2.3828 1.5312-3.7969 1.5312z"/>
  <path d="m90.355 343.44c-3.0195 0.023438-5.4883-2.4062-5.5117-5.4258-0.027344-3.0195 2.4023-5.4883 5.4219-5.5117l16.637-0.27344c3.0195-0.046874 5.5078 2.3594 5.5586 5.3828 0.046874 3.0195-2.3633 5.5078-5.3828 5.5547l-16.637 0.27344z"/>
  <path d="m153.12 448.09c-0.92578 0.003906-1.8398-0.23438-2.6484-0.6875-1.2656-0.70313-2.2031-1.8828-2.6016-3.2773-0.39453-1.3984-0.22266-2.8906 0.48047-4.1602l8.4219-15.137c0.60156-1.4453 1.7891-2.5625 3.2656-3.0742 1.4766-0.50781 3.1016-0.36328 4.4609 0.40234 1.3633 0.76172 2.3359 2.0742 2.668 3.6016s-0.003906 3.1211-0.92188 4.3867l-8.4102 15.137c-0.95312 1.7148-2.7539 2.7852-4.7148 2.8086z"/>
  <path d="m106.83 403.1c-2.4648 0.003907-4.625-1.6328-5.2852-4.0039-0.65625-2.375 0.35156-4.8945 2.4609-6.1562l14.863-8.8906v-0.003906c2.5938-1.5508 5.9531-0.70703 7.5039 1.8828 1.5547 2.5898 0.71094 5.9492-1.8789 7.5039l-14.863 8.8906h-0.003906c-0.84375 0.50781-1.8125 0.77734-2.7969 0.77734z"/>
  <use x="70" y="576.40625" xlink:href="#t"/>
  <use x="74.011719" y="576.40625" xlink:href="#d"/>
  <use x="76.710938" y="576.40625" xlink:href="#a"/>
  <use x="80.417969" y="576.40625" xlink:href="#j"/>
  <use x="84.109375" y="576.40625" xlink:href="#c"/>
  <use x="86.722656" y="576.40625" xlink:href="#a"/>
  <use x="90.433594" y="576.40625" xlink:href="#i"/>
  <use x="96.25" y="576.40625" xlink:href="#h"/>
  <use x="100.167969" y="576.40625" xlink:href="#g"/>
  <use x="105.636719" y="576.40625" xlink:href="#f"/>
  <use x="107.667969" y="576.40625" xlink:href="#s"/>
  <use x="109.542969" y="576.40625" xlink:href="#e"/>
  <use x="113.4375" y="576.40625" xlink:href="#b"/>
  <use x="70" y="581.875" xlink:href="#r"/>
  <use x="72.378906" y="581.875" xlink:href="#d"/>
  <use x="75.078125" y="581.875" xlink:href="#b"/>
  <use x="78.832031" y="581.875" xlink:href="#q"/>
  <use x="86.4375" y="581.875" xlink:href="#c"/>
  <use x="89.050781" y="581.875" xlink:href="#p"/>
  <use x="92.941406" y="581.875" xlink:href="#a"/>
  <use x="98.554688" y="581.875" xlink:href="#o"/>
  <use x="103.132812" y="581.875" xlink:href="#b"/>
  <use x="106.890625" y="581.875" xlink:href="#n"/>
  <use x="110.785156" y="581.875" xlink:href="#e"/>
  <use x="116.582031" y="581.875" xlink:href="#m"/>
  <use x="120.589844" y="581.875" xlink:href="#d"/>
  <use x="123.285156" y="581.875" xlink:href="#b"/>
  <use x="127.042969" y="581.875" xlink:href="#l"/>
  <use x="128.917969" y="581.875" xlink:href="#a"/>
  <use x="132.625" y="581.875" xlink:href="#k"/>
  <use x="135.867188" y="581.875" xlink:href="#c"/>
 </g>
</svg>
