<?xml version="1.0" encoding="UTF-8"?>
<svg width="700pt" height="700pt" version="1.1" viewBox="0 0 700 700" xmlns="http://www.w3.org/2000/svg" xmlns:xlink="http://www.w3.org/1999/xlink">
 <defs>
  <symbol id="i" overflow="visible">
   <path d="m18.766-1.125c-0.96875 0.5-1.9805 0.875-3.0312 1.125-1.043 0.25781-2.1367 0.39062-3.2812 0.39062-3.3984 0-6.0898-0.94531-8.0781-2.8438-1.9922-1.9062-2.9844-4.4844-2.9844-7.7344 0-3.2578 0.99219-5.8359 2.9844-7.7344 1.9883-1.9062 4.6797-2.8594 8.0781-2.8594 1.1445 0 2.2383 0.13281 3.2812 0.39062 1.0508 0.25 2.0625 0.625 3.0312 1.125v4.2188c-0.98047-0.65625-1.9453-1.1406-2.8906-1.4531-0.94922-0.3125-1.9492-0.46875-3-0.46875-1.875 0-3.3516 0.60547-4.4219 1.8125-1.0742 1.1992-1.6094 2.8555-1.6094 4.9688 0 2.1055 0.53516 3.7617 1.6094 4.9688 1.0703 1.1992 2.5469 1.7969 4.4219 1.7969 1.0508 0 2.0508-0.14844 3-0.45312 0.94531-0.3125 1.9102-0.80078 2.8906-1.4688z"/>
  </symbol>
  <symbol id="b" overflow="visible">
   <path d="m13.734-11.141c-0.4375-0.19531-0.87109-0.34375-1.2969-0.4375-0.41797-0.10156-0.83984-0.15625-1.2656-0.15625-1.2617 0-2.2305 0.40625-2.9062 1.2188-0.67969 0.80469-1.0156 1.9531-1.0156 3.4531v7.0625h-4.8906v-15.312h4.8906v2.5156c0.625-1 1.3438-1.7266 2.1562-2.1875 0.82031-0.46875 1.8008-0.70312 2.9375-0.70312 0.16406 0 0.34375 0.011719 0.53125 0.03125 0.19531 0.011719 0.47656 0.039062 0.84375 0.078125z"/>
  </symbol>
  <symbol id="a" overflow="visible">
   <path d="m17.641-7.7031v1.4062h-11.453c0.125 1.1484 0.53906 2.0078 1.25 2.5781 0.70703 0.57422 1.7031 0.85938 2.9844 0.85938 1.0312 0 2.082-0.14844 3.1562-0.45312 1.082-0.3125 2.1914-0.77344 3.3281-1.3906v3.7656c-1.1562 0.4375-2.3125 0.76562-3.4688 0.98438-1.1562 0.22656-2.3125 0.34375-3.4688 0.34375-2.7734 0-4.9297-0.70312-6.4688-2.1094-1.5312-1.4062-2.2969-3.3789-2.2969-5.9219 0-2.5 0.75391-4.4609 2.2656-5.8906 1.5078-1.4375 3.582-2.1562 6.2188-2.1562 2.4062 0 4.332 0.73047 5.7812 2.1875 1.4453 1.4492 2.1719 3.3828 2.1719 5.7969zm-5.0312-1.625c0-0.92578-0.27344-1.6719-0.8125-2.2344-0.54297-0.57031-1.25-0.85938-2.125-0.85938-0.94922 0-1.7188 0.26562-2.3125 0.79688s-0.96484 1.2969-1.1094 2.2969z"/>
  </symbol>
  <symbol id="m" overflow="visible">
   <path d="m9.2188-6.8906c-1.0234 0-1.793 0.17188-2.3125 0.51562-0.51172 0.34375-0.76562 0.85547-0.76562 1.5312 0 0.625 0.20703 1.1172 0.625 1.4688 0.41406 0.34375 0.98828 0.51562 1.7188 0.51562 0.92578 0 1.7031-0.32812 2.3281-0.98438 0.63281-0.66406 0.95312-1.4922 0.95312-2.4844v-0.5625zm7.4688-1.8438v8.7344h-4.9219v-2.2656c-0.65625 0.92969-1.3984 1.6055-2.2188 2.0312-0.82422 0.41406-1.8242 0.625-3 0.625-1.5859 0-2.8711-0.45703-3.8594-1.375-0.99219-0.92578-1.4844-2.1289-1.4844-3.6094 0-1.7891 0.61328-3.1016 1.8438-3.9375 1.2383-0.84375 3.1797-1.2656 5.8281-1.2656h2.8906v-0.39062c0-0.76953-0.30859-1.332-0.92188-1.6875-0.61719-0.36328-1.5703-0.54688-2.8594-0.54688-1.0547 0-2.0312 0.10547-2.9375 0.3125-0.89844 0.21094-1.7305 0.52344-2.5 0.9375v-3.7344c1.0391-0.25 2.0859-0.44141 3.1406-0.57812 1.0625-0.13281 2.125-0.20312 3.1875-0.20312 2.7578 0 4.75 0.54688 5.9688 1.6406 1.2266 1.0859 1.8438 2.8555 1.8438 5.3125z"/>
  </symbol>
  <symbol id="c" overflow="visible">
   <path d="m7.7031-19.656v4.3438h5.0469v3.5h-5.0469v6.5c0 0.71094 0.14062 1.1875 0.42188 1.4375s0.83594 0.375 1.6719 0.375h2.5156v3.5h-4.1875c-1.9375 0-3.3125-0.39844-4.125-1.2031-0.80469-0.8125-1.2031-2.1797-1.2031-4.1094v-6.5h-2.4219v-3.5h2.4219v-4.3438z"/>
  </symbol>
  <symbol id="l" overflow="visible">
   <path d="m12.766-13.078v-8.2031h4.9219v21.281h-4.9219v-2.2188c-0.66797 0.90625-1.4062 1.5703-2.2188 1.9844s-1.7578 0.625-2.8281 0.625c-1.8867 0-3.4336-0.75-4.6406-2.25-1.2109-1.5-1.8125-3.4258-1.8125-5.7812 0-2.3633 0.60156-4.2969 1.8125-5.7969 1.207-1.5 2.7539-2.25 4.6406-2.25 1.0625 0 2 0.21484 2.8125 0.64062 0.82031 0.42969 1.5664 1.0859 2.2344 1.9688zm-3.2188 9.9219c1.0391 0 1.8359-0.37891 2.3906-1.1406 0.55078-0.76953 0.82812-1.8828 0.82812-3.3438 0-1.457-0.27734-2.5664-0.82812-3.3281-0.55469-0.76953-1.3516-1.1562-2.3906-1.1562-1.043 0-1.8398 0.38672-2.3906 1.1562-0.55469 0.76172-0.82812 1.8711-0.82812 3.3281 0 1.4609 0.27344 2.5742 0.82812 3.3438 0.55078 0.76172 1.3477 1.1406 2.3906 1.1406z"/>
  </symbol>
  <symbol id="k" overflow="visible">
   <path d="m10.5-3.1562c1.0508 0 1.8516-0.37891 2.4062-1.1406 0.55078-0.76953 0.82812-1.8828 0.82812-3.3438 0-1.457-0.27734-2.5664-0.82812-3.3281-0.55469-0.76953-1.3555-1.1562-2.4062-1.1562-1.0547 0-1.8594 0.38672-2.4219 1.1562-0.55469 0.77344-0.82812 1.8828-0.82812 3.3281 0 1.4492 0.27344 2.5586 0.82812 3.3281 0.5625 0.77344 1.3672 1.1562 2.4219 1.1562zm-3.25-9.9219c0.67578-0.88281 1.4219-1.5391 2.2344-1.9688 0.82031-0.42578 1.7656-0.64062 2.8281-0.64062 1.8945 0 3.4453 0.75 4.6562 2.25 1.207 1.5 1.8125 3.4336 1.8125 5.7969 0 2.3555-0.60547 4.2812-1.8125 5.7812-1.2109 1.5-2.7617 2.25-4.6562 2.25-1.0625 0-2.0078-0.21094-2.8281-0.625-0.8125-0.42578-1.5586-1.0859-2.2344-1.9844v2.2188h-4.8906v-21.281h4.8906z"/>
  </symbol>
  <symbol id="j" overflow="visible">
   <path d="m0.34375-15.312h4.8906l4.125 10.391 3.5-10.391h4.8906l-6.4375 16.766c-0.64844 1.6953-1.4023 2.8828-2.2656 3.5625-0.86719 0.6875-2 1.0312-3.4062 1.0312h-2.8438v-3.2188h1.5312c0.83203 0 1.4375-0.13672 1.8125-0.40625 0.38281-0.26172 0.67969-0.73047 0.89062-1.4062l0.14062-0.42188z"/>
  </symbol>
  <symbol id="e" overflow="visible">
   <path d="m17.75-9.3281v9.3281h-4.9219v-7.1094c0-1.3438-0.03125-2.2656-0.09375-2.7656s-0.16797-0.86719-0.3125-1.1094c-0.1875-0.3125-0.44922-0.55469-0.78125-0.73438-0.32422-0.17578-0.69531-0.26562-1.1094-0.26562-1.0234 0-1.8242 0.39844-2.4062 1.1875-0.58594 0.78125-0.875 1.8711-0.875 3.2656v7.5312h-4.8906v-21.281h4.8906v8.2031c0.73828-0.88281 1.5195-1.5391 2.3438-1.9688 0.83203-0.42578 1.75-0.64062 2.75-0.64062 1.7695 0 3.1133 0.54688 4.0312 1.6406 0.91406 1.0859 1.375 2.6562 1.375 4.7188z"/>
  </symbol>
  <symbol id="h" overflow="visible">
   <path d="m2.3594-15.312h4.8906v15.312h-4.8906zm0-5.9688h4.8906v4h-4.8906z"/>
  </symbol>
  <symbol id="g" overflow="visible">
   <path d="m14.312-14.828v3.7188c-1.043-0.4375-2.0547-0.76562-3.0312-0.98438-0.98047-0.21875-1.9023-0.32812-2.7656-0.32812-0.92969 0-1.6211 0.11719-2.0781 0.34375-0.44922 0.23047-0.67188 0.58984-0.67188 1.0781 0 0.38672 0.17188 0.68359 0.51562 0.89062 0.34375 0.21094 0.95703 0.36719 1.8438 0.46875l0.85938 0.125c2.5078 0.32422 4.1953 0.85156 5.0625 1.5781 0.86328 0.73047 1.2969 1.8711 1.2969 3.4219 0 1.6367-0.60547 2.8672-1.8125 3.6875-1.1992 0.8125-2.9922 1.2188-5.375 1.2188-1.0234 0-2.0742-0.078125-3.1562-0.23438-1.0742-0.15625-2.1797-0.39453-3.3125-0.71875v-3.7188c0.96875 0.48047 1.9609 0.83984 2.9844 1.0781 1.0312 0.23047 2.0781 0.34375 3.1406 0.34375 0.95703 0 1.6758-0.12891 2.1562-0.39062 0.47656-0.26953 0.71875-0.66406 0.71875-1.1875 0-0.4375-0.16797-0.75781-0.5-0.96875-0.33594-0.21875-0.99609-0.38281-1.9844-0.5l-0.85938-0.10938c-2.1797-0.26953-3.7031-0.77344-4.5781-1.5156-0.875-0.73828-1.3125-1.8594-1.3125-3.3594 0-1.625 0.55078-2.8281 1.6562-3.6094 1.1133-0.78906 2.8203-1.1875 5.125-1.1875 0.89453 0 1.8359 0.074219 2.8281 0.21875 1 0.13672 2.082 0.35156 3.25 0.64062z"/>
  </symbol>
  <symbol id="v" overflow="visible">
   <path d="m0.82812-20.406h5.0469l3.5312 14.828 3.5-14.828h5.0781l3.5 14.828 3.5156-14.828h5.0156l-4.8125 20.406h-6.0781l-3.7031-15.516-3.6562 15.516h-6.0781z"/>
  </symbol>
  <symbol id="u" overflow="visible">
   <path d="m2.3594-21.281h4.8906v21.281h-4.8906z"/>
  </symbol>
  <symbol id="f" overflow="visible">
   <path d="m16.547-12.766c0.61328-0.94531 1.3477-1.6719 2.2031-2.1719 0.85156-0.5 1.7891-0.75 2.8125-0.75 1.7578 0 3.0977 0.54688 4.0156 1.6406 0.92578 1.0859 1.3906 2.6562 1.3906 4.7188v9.3281h-4.9219v-7.9844-0.35938c0.007813-0.13281 0.015625-0.32031 0.015625-0.5625 0-1.082-0.16406-1.8633-0.48438-2.3438-0.3125-0.48828-0.82422-0.73438-1.5312-0.73438-0.92969 0-1.6484 0.38672-2.1562 1.1562-0.51172 0.76172-0.77344 1.8672-0.78125 3.3125v7.5156h-4.9219v-7.9844c0-1.6953-0.14844-2.7852-0.4375-3.2656-0.29297-0.48828-0.8125-0.73438-1.5625-0.73438-0.9375 0-1.6641 0.38672-2.1719 1.1562-0.51172 0.76172-0.76562 1.8594-0.76562 3.2969v7.5312h-4.9219v-15.312h4.9219v2.2344c0.60156-0.86328 1.2891-1.5156 2.0625-1.9531 0.78125-0.4375 1.6406-0.65625 2.5781-0.65625 1.0625 0 2 0.25781 2.8125 0.76562 0.8125 0.51172 1.4258 1.2305 1.8438 2.1562z"/>
  </symbol>
  <symbol id="t" overflow="visible">
   <path d="m12.422-21.281v3.2188h-2.7031c-0.6875 0-1.1719 0.125-1.4531 0.375-0.27344 0.25-0.40625 0.6875-0.40625 1.3125v1.0625h4.1875v3.5h-4.1875v11.812h-4.8906v-11.812h-2.4375v-3.5h2.4375v-1.0625c0-1.6641 0.46094-2.8984 1.3906-3.7031 0.92578-0.80078 2.3672-1.2031 4.3281-1.2031z"/>
  </symbol>
  <symbol id="d" overflow="visible">
   <path d="m9.6406-12.188c-1.0859 0-1.9141 0.39062-2.4844 1.1719-0.57422 0.78125-0.85938 1.9062-0.85938 3.375s0.28516 2.5938 0.85938 3.375c0.57031 0.77344 1.3984 1.1562 2.4844 1.1562 1.0625 0 1.875-0.38281 2.4375-1.1562 0.57031-0.78125 0.85938-1.9062 0.85938-3.375s-0.28906-2.5938-0.85938-3.375c-0.5625-0.78125-1.375-1.1719-2.4375-1.1719zm0-3.5c2.6328 0 4.6914 0.71484 6.1719 2.1406 1.4766 1.418 2.2188 3.3867 2.2188 5.9062 0 2.5117-0.74219 4.4805-2.2188 5.9062-1.4805 1.418-3.5391 2.125-6.1719 2.125-2.6484 0-4.7148-0.70703-6.2031-2.125-1.4922-1.4258-2.2344-3.3945-2.2344-5.9062 0-2.5195 0.74219-4.4883 2.2344-5.9062 1.4883-1.4258 3.5547-2.1406 6.2031-2.1406z"/>
  </symbol>
  <symbol id="s" overflow="visible">
   <path d="m2.5781-20.406h5.875l7.4219 14v-14h4.9844v20.406h-5.875l-7.4219-14v14h-4.9844z"/>
  </symbol>
  <symbol id="r" overflow="visible">
   <path d="m2.1875-5.9688v-9.3438h4.9219v1.5312c0 0.83594-0.007813 1.875-0.015625 3.125-0.011719 1.25-0.015625 2.0859-0.015625 2.5 0 1.2422 0.03125 2.1328 0.09375 2.6719 0.070313 0.54297 0.17969 0.93359 0.32812 1.1719 0.20703 0.32422 0.47266 0.57422 0.79688 0.75 0.32031 0.16797 0.69141 0.25 1.1094 0.25 1.0195 0 1.8203-0.39062 2.4062-1.1719 0.58203-0.78125 0.875-1.8672 0.875-3.2656v-7.5625h4.8906v15.312h-4.8906v-2.2188c-0.74219 0.89844-1.5234 1.5586-2.3438 1.9844-0.82422 0.41406-1.7344 0.625-2.7344 0.625-1.7617 0-3.1055-0.53906-4.0312-1.625-0.92969-1.082-1.3906-2.6602-1.3906-4.7344z"/>
  </symbol>
  <symbol id="q" overflow="visible">
   <path d="m17.75-9.3281v9.3281h-4.9219v-7.1406c0-1.3203-0.03125-2.2344-0.09375-2.7344s-0.16797-0.86719-0.3125-1.1094c-0.1875-0.3125-0.44922-0.55469-0.78125-0.73438-0.32422-0.17578-0.69531-0.26562-1.1094-0.26562-1.0234 0-1.8242 0.39844-2.4062 1.1875-0.58594 0.78125-0.875 1.8711-0.875 3.2656v7.5312h-4.8906v-15.312h4.8906v2.2344c0.73828-0.88281 1.5195-1.5391 2.3438-1.9688 0.83203-0.42578 1.75-0.64062 2.75-0.64062 1.7695 0 3.1133 0.54688 4.0312 1.6406 0.91406 1.0859 1.375 2.6562 1.375 4.7188z"/>
  </symbol>
  <symbol id="p" overflow="visible">
   <path d="m2.5781-20.406h8.7344c2.5938 0 4.582 0.57812 5.9688 1.7344 1.3945 1.1484 2.0938 2.7891 2.0938 4.9219 0 2.1367-0.69922 3.7812-2.0938 4.9375-1.3867 1.1562-3.375 1.7344-5.9688 1.7344h-3.4844v7.0781h-5.25zm5.25 3.8125v5.7031h2.9219c1.0195 0 1.8047-0.25 2.3594-0.75 0.5625-0.5 0.84375-1.2031 0.84375-2.1094 0-0.91406-0.28125-1.6172-0.84375-2.1094-0.55469-0.48828-1.3398-0.73438-2.3594-0.73438z"/>
  </symbol>
  <symbol id="o" overflow="visible">
   <path d="m2.3594-15.312h4.8906v15.031c0 2.0508-0.49609 3.6172-1.4844 4.7031-0.98047 1.082-2.4062 1.625-4.2812 1.625h-2.4219v-3.2188h0.85938c0.92578 0 1.5625-0.21094 1.9062-0.625 0.35156-0.41797 0.53125-1.2461 0.53125-2.4844zm0-5.9688h4.8906v4h-4.8906z"/>
  </symbol>
  <symbol id="n" overflow="visible">
   <path d="m14.719-14.828v3.9844c-0.65625-0.45703-1.3242-0.79688-2-1.0156-0.66797-0.21875-1.3594-0.32812-2.0781-0.32812-1.3672 0-2.4336 0.40234-3.2031 1.2031-0.76172 0.79297-1.1406 1.9062-1.1406 3.3438 0 1.4297 0.37891 2.543 1.1406 3.3438 0.76953 0.79297 1.8359 1.1875 3.2031 1.1875 0.75781 0 1.4844-0.10938 2.1719-0.32812 0.6875-0.22656 1.3203-0.56641 1.9062-1.0156v4c-0.76172 0.28125-1.5391 0.48828-2.3281 0.625-0.78125 0.14453-1.5742 0.21875-2.375 0.21875-2.7617 0-4.9219-0.70703-6.4844-2.125-1.5547-1.4141-2.3281-3.3828-2.3281-5.9062 0-2.5312 0.77344-4.5039 2.3281-5.9219 1.5625-1.4141 3.7227-2.125 6.4844-2.125 0.80078 0 1.5938 0.074219 2.375 0.21875 0.78125 0.13672 1.5547 0.35156 2.3281 0.64062z"/>
  </symbol>
 </defs>
 <g>
  <path d="m345.29 114.61c0.011719-0.35938-0.15625-0.69922-0.44141-0.91406-0.19141-0.14453-4.7539-3.5156-11.562-3.5156-3.9922 0-7.918 1.1641-11.676 3.4609-0.29688 0.17969-0.49219 0.48828-0.52734 0.83594-0.035156 0.34766-3.1133 27.266-24.258 47.344-0.90234-21.887 3.6289-42.906 3.6797-43.141 0.28125-1.2773-0.078125-2.4805-1.125-3.2656-1.0938-1.2031-3.332-7.9688-4.9062-14.828l-7.2305-68.984c-0.19141-1.832-1.8203-3.168-3.6641-2.9688-1.832 0.19141-3.1602 1.832-2.9688 3.6641l7.2539 69.172c0.011719 0.13281 0.035157 0.26172 0.066407 0.39062 1.3672 6.0039 3.375 13.277 5.7383 16.941-1.1641 5.8867-4.9219 27.105-3.2031 48.402-4.8906 3.6797-10.543 6.9648-17.09 9.5977-0.47656 0.11719-47.066 12.293-64.629 43.109-11.426-5.0469-19.582-6.5469-25.184-6.5469-5.2031 0-7.4922 1.3086-7.6094 1.3945-53.652 24.199-52.633 66.938-49.051 86.066-5.3867 1.6406-14.336 8.6914-28.051 31.238-0.95703 1.5742-0.46094 3.625 1.1133 4.582 0.54297 0.33203 1.1367 0.48828 1.7305 0.48828 1.125 0 2.2227-0.57031 2.8516-1.6016 13.562-22.293 21.105-27.082 23.883-28.105 0.54687 1.9375 0.95703 3.0586 0.99219 3.1367 0.16406 0.42578 0.57031 0.70703 1.0234 0.71094h0.011719c0.45312 0 0.85547-0.27344 1.0312-0.69531 16.066-39.492 41.957-40.66 45.059-40.66h0.003906c1.3203 0.027344 2.5742 0.023437 3.8008 0.011719-0.20703 7.2344-0.98047 45.254 5.1133 65.527-0.15234 3.543-3.6055 66.93-51.824 88.84-0.55859 0.25391-0.80469 0.91406-0.54688 1.4727 0.18359 0.41016 0.58984 0.64844 1.0117 0.64844 0.15234 0 0.30859-0.035156 0.46094-0.10156 41.625-18.91 50.695-67.777 52.625-84.918l5.2812 29.77c-0.86328 0.5-1.5117 1.3203-1.6641 2.3633-0.054688 0.40234-6.293 40.422-41.098 54.566-0.36328 0.14453-0.69922 0.35938-0.99219 0.62109-0.37891 0.34766-9.2969 8.5781-8.4961 18.008 0.011719 0.14062 0.035156 0.28125 0.0625 0.42578 0.042969 0.20312 4.3867 20.57 0.15625 32.156-0.16406 0.375-16.609 37.816-38.102 45.176-1.7422 0.59766-2.6719 2.4922-2.0703 4.2344 0.46875 1.3828 1.7695 2.2578 3.1523 2.2578 0.35938 0 0.72266-0.054688 1.082-0.17969 24.277-8.3086 41.344-47.18 42.129-49.012 4.7383-12.965 0.74609-33.254 0.21875-35.801-0.28125-4.7148 3.875-9.8828 5.957-11.945 26.539-11.07 37.656-34.984 42.016-48.922 5.6602 10.684 19.152 28.426 51.062 48.922-0.95312 10.336-3.4062 24.824-6.4102 28.207-0.3125 0.35156-0.54687 0.77344-0.6875 1.2266-0.20312 0.64453-4.7305 15.551-0.35156 29.727-1.668 4.4531-7.3516 20.727-6.7422 34.512 0.085938 1.8359 1.6133 3.3359 3.4766 3.1797 1.8359-0.078125 3.2656-1.6367 3.1797-3.4766-0.63281-14.348 6.6406-32.703 6.7148-32.891 0.29688-0.74609 0.32031-1.5742 0.054688-2.3281-0.17969-0.51953-0.33203-1.0547-0.48047-1.5781 4.0391-6.8555 15.77-22.566 37.703-21 0.59766 0.039062 1.1406-0.42188 1.1875-1.0312 0.042969-0.60938-0.42188-1.1406-1.0312-1.1875-21.281-1.4688-33.426 12.309-38.578 20.184-1.8203-9.625 0.4375-19.164 1.0742-21.559 5.4375-7.3242 7.375-29.047 7.7188-33.449 0.09375-1.2305-0.5-2.4141-1.5391-3.0742-49.516-31.309-53.723-55.703-53.754-55.91-0.19531-1.4609-1.332-2.5469-2.75-2.793l-5.6562-31.875c-0.011719-0.078125-0.035156-0.15625-0.0625-0.22266-7.3984-18.188-6.5508-61.68-6.3555-68.812 19.699-0.63672 26.156-6.4805 26.414-6.7188 6.4844-5.7383 40.359-15.941 40.699-16.043 0.40234-0.11719 0.69922-0.46094 0.77344-0.875 0.074219-0.41406-0.09375-0.83594-0.42969-1.0859-8.7344-6.5-16.555-11.723-23.535-15.91 5.1914-1.1914 17.852-3.6133 35.285-3.6133 27.797 0 55.227 5.8516 81.52 17.383 0.14062 0.0625 0.29297 0.09375 0.44922 0.09375 0.18359 0 0.37109-0.042969 0.53906-0.14062 0.30078-0.16797 0.50781-0.46875 0.55859-0.8125 0.050781-0.35938 4.8047-35.539-19.859-57.102 5.1992-2.7422 18.953-15.164 20.277-70.453zm64.316 297.12c-0.48828-0.15625-1.0195 0.042969-1.2812 0.48828-0.42969 0.71094-10.824 17.297-38.719 7.543-0.57812-0.20703-1.2109 0.10156-1.418 0.68359-0.20312 0.57813 0.10156 1.2148 0.68359 1.418 22.32 7.8242 34.41-0.83984 39.07-5.6836-1.2227 18.172-7.3789 102.17-17.539 113.23-0.41406 0.45312-0.38672 1.1523 0.066406 1.5664 0.21094 0.19531 0.48047 0.29297 0.75 0.29297 0.30078 0 0.59766-0.125 0.81641-0.35938 11.867-12.918 18.082-113.76 18.34-118.04 0.042969-0.51953-0.27734-0.98438-0.76953-1.1328zm-117.37-101.38c-0.039063-0.11719-0.09375-0.23047-0.16797-0.33203-23.121-31.125-26.719-64.43-26.75-64.766-0.0625-0.60938-0.59375-1.0312-1.2148-0.99219-0.60937 0.0625-1.0547 0.60547-0.99219 1.2148 0.035156 0.33594 3.6641 34.121 27.066 65.715 1.1406 3.5742 18.73 57.535 47.398 86.742 0.21875 0.21875 0.50391 0.33203 0.79688 0.33203 0.28125 0 0.55859-0.10547 0.77734-0.32031 0.4375-0.42969 0.44141-1.1328 0.015624-1.5742-29.137-29.668-46.754-85.461-46.93-86.02zm121.72 78.758c-0.59375 0.054687-1.043 0.58984-1.0078 1.1875 0 0.039062 0.039063 1.0195-1.2695 2.3125-2.9531 2.9102-12.723 7.4648-45.09 5.2266-0.60547-0.039062-1.1406 0.42188-1.1875 1.0312-0.039063 0.60938 0.42187 1.1406 1.0312 1.1875 6.0469 0.42188 11.344 0.60547 16.004 0.60547 19.988 0 27.957-3.4453 31.02-6.6914 1.8828-1.9883 1.7266-3.7227 1.6953-3.9141-0.070313-0.59375-0.58594-1.0312-1.1953-0.94531zm187.29 25.164c-5.0898-9.6367-10.16-14.605-12.867-16.801 11.73-66.16-10.562-79.336-14.633-81.156-9.918-7.3789-12.492-14.391-13.156-17.23 7.6289-23.477 6.9883-42.598-2.0117-57.008-11.93-19.102-35.836-25.137-50.082-27.047l-24.422-7.8008c-13.105-18.047-32.949-24.09-33.074-24.125-21.637-8.7148-32.176-18.219-37-24.02l0.007812-30.395c1.707-6.2891 5.168-19.918 4.6211-24.969 1.332-11.441 7.0117-62.984 2.6328-73.09-0.73437-1.6914-2.6953-2.4648-4.3867-1.7305-1.6914 0.73437-2.4648 2.6953-1.7305 4.3867 2.8789 6.6406-0.42578 46.523-3.1875 70.105-0.039063 0.33203 0.011719 0.82812 0.066406 1.1523 0.23438 1.2891-0.46875 5.5547-1.5859 10.703l-8.3555 12.32c-7.2227 9.4531-20.031 24.691-23.766 25.379-0.066406 0.023438-7.2188 2.3672-16.605 1.8867-0.68359-0.027343-1.1367 0.44141-1.1641 1.0547-0.027344 0.60938 0.44141 1.1367 1.0547 1.1641 0.91797 0.042969 1.8047 0.066407 2.6719 0.066407 8.4375 0 14.453-1.9727 14.594-2.0273 5.6055-1.0195 23.016-23.605 25.02-26.227l5.1367-7.5898c-0.50391 2.0547-1.0352 4.1172-1.5742 6.0859-0.078124 0.28516-0.11719 0.58203-0.11719 0.87891v37.418c0 0.84375 0.32422 1.6055 0.83984 2.1953v13.355c0 6.6758 11.469 19.18 11.988 19.738 2.8281 2.8281 1.7344 5.9883 1.6914 6.1133-0.12891 0.33984-0.078125 0.72266 0.125 1.0234 0.20703 0.29688 0.54688 0.47656 0.91406 0.47656 20.957 0 48.512 3.5156 59.09 4.9844l14.609 4.6641c0.26172 2.0703 0.050781 3.6641-0.69531 4.6328-0.86328 1.1328-2.3086 1.2305-2.8945 1.2148-14.086-8.0234-25.195-12.09-33.023-12.09-8.8555 0-10.406 5.2344-10.465 5.4609-0.039062 0.14062-0.050781 0.29297-0.027343 0.4375 0.36328 2.8281 1.7656 5.9414 3.9492 9.2227-15.176-10.691-48.148-26.23-87.555 1.8203-0.5 0.35938-0.61719 1.0469-0.25781 1.5508 0.35937 0.5 1.0547 0.61719 1.5508 0.26172 52.504-37.367 93.223 4.8906 93.625 5.3203 0.035156 0.035157 0.078125 0.050782 0.11328 0.078126 16.945 17.586 48.109 37.184 62.262 45.668-1.4336-10.062-4.4453-30.934-5.5234-35.957-0.25781-1.1992 0.50391-2.3789 1.707-2.6367 1.2109-0.26172 2.3789 0.50391 2.6367 1.707 1.2773 5.9453 5.0195 32.289 6.0742 39.789 0.82422 0.48047 1.4688 0.85156 1.875 1.0859 0.19141 0.96484 0.49219 2.043 0.89062 3.2031-1.4844 0.074219-29.887 1.8477-52.734 27.895-4.3008 2.0508-76.02 35.414-110.84 4.0078-0.45312-0.41406-1.1602-0.375-1.5664 0.078125-0.41406 0.45312-0.375 1.1602 0.078125 1.5664 10.305 9.2969 24.812 14.004 42.707 14.004 8.6289 0 18.047-1.0977 28.168-3.3047 19.734-4.3008 36.383-11.582 41.188-13.793 0.71094 6.7656 3.8516 33.512 10.422 50.781-0.45312 0.41016-0.82812 0.91406-1.0078 1.5352-0.050782 0.15625-4.9102 15.926-26.117 27.66-0.64453 0.35938-1.1602 0.92578-1.4492 1.6016l-8.7461 20.41c-0.11719 0.26953-0.19141 0.54688-0.23438 0.83984-0.0625 0.4375-1.4688 10.848 2.8516 28.906-0.26953 2.8945-1.7031 17.148-4.8398 25.445-0.51953 1.3711-0.078126 2.9219 1.0859 3.8203 0.17969 0.13281 17.887 14.125 22.172 48.016 0.21094 1.6875 1.6523 2.9102 3.3047 2.9102 0.14062 0 0.28125-0.011719 0.42578-0.027344 1.8242-0.23047 3.1211-1.8984 2.8906-3.7227-3.8398-30.402-17.781-46.055-22.871-50.848 3.2422-10.188 4.4727-24.91 4.5312-25.574 0.027344-0.35938 0-0.71875-0.085938-1.0586-3.6719-15.113-3.0781-24.562-2.8945-26.539l8.1094-18.918c13.238-7.5664 20.551-16.516 24.406-22.863 7.1133 17.77 23.156 32.496 27.887 36.586 0.23047 3.6445 2.3242 8.5977 4.1328 12.258-1.4492 2.8164-3.0742 8.7656-4.0312 21.766-0.054688 0.40234-1.3164 10.062 1.3398 21.211 3.4727 14.578 12.027 24.887 24.793 29.91l10.023 24.656c0.69531 1.7031 2.625 2.5273 4.3438 1.832 1.7031-0.69531 2.5273-2.6367 1.832-4.3438l-10.578-26.012c-0.35938-0.87891-1.082-1.5664-1.9766-1.8867-11.418-4.043-18.793-12.629-21.906-25.508-2.4141-9.9688-1.2695-18.879-1.2422-19.164 0.57812-7.8359 2.0117-17.316 3.2656-19.41 0.55859-0.40234 0.99219-0.97266 1.2148-1.6406 0.29297-0.86328 0.21875-1.8086-0.20703-2.6133-2.4766-4.7109-4.5586-10.293-4.3906-11.625 0.36328-1.2812-0.066406-2.6641-1.1016-3.5039-0.25391-0.20312-24.891-20.406-29.457-42.312-0.3125-1.4961-1.6016-2.582-3.1289-2.6445-0.089844-0.003906-0.17188 0.027344-0.26172 0.035156-6.7969-17.949-9.9688-47.141-10.383-51.246 22.656-25.68 50.766-26.953 51.043-26.957 0.22266-0.003906 0.42188-0.10156 0.58984-0.21875 4.7383 12.008 17.008 30.438 17.617 31.348 0.20703 0.30859 0.55469 0.49219 0.92578 0.49219h0.074219c0.39844-0.027344 0.75-0.26172 0.92578-0.62109 2.3516-4.8164 4.3906-9.4648 6.1836-13.988 2.3672 4.0664 6.2812 8.9141 12.828 13.715 0.24219 0.17188 0.55859 0.33984 0.83984 0.44922 0.23047 0.089843 22.77 9.5469 10.488 75.965-0.26172 1.3984 0.39844 2.8047 1.6367 3.5039 0.054687 0.035156 5.957 3.6016 12.27 15.547 0.59766 1.1328 1.7539 1.7734 2.9531 1.7734 0.52734 0 1.0586-0.125 1.5586-0.38672 1.5938-0.85156 2.2148-2.875 1.3555-4.5zm-187.62-62.512c-0.55859 0.24219-0.8125 0.89063-0.57813 1.4492 0.023438 0.054688 0.56641 1.4219-0.62891 3.1094-2.2891 3.2383-11.301 8.3789-45.836 6.5195-0.67578-0.050782-1.1367 0.4375-1.1719 1.0469-0.035156 0.61719 0.4375 1.1367 1.0469 1.1719 4.8477 0.26172 9.3633 0.39062 13.531 0.39062 18.969 0 30.734-2.6992 34.312-7.9453 1.8594-2.7227 0.81641-5.0977 0.77344-5.1953-0.25391-0.54688-0.89453-0.79688-1.4492-0.54688z"/>
  <use x="70" y="644" xlink:href="#i"/>
  <use x="90.550781" y="644" xlink:href="#b"/>
  <use x="104.359375" y="644" xlink:href="#a"/>
  <use x="123.347656" y="644" xlink:href="#m"/>
  <use x="142.242188" y="644" xlink:href="#c"/>
  <use x="155.628906" y="644" xlink:href="#a"/>
  <use x="174.617188" y="644" xlink:href="#l"/>
  <use x="204.410156" y="644" xlink:href="#k"/>
  <use x="224.453125" y="644" xlink:href="#j"/>
  <use x="252.453125" y="644" xlink:href="#i"/>
  <use x="273" y="644" xlink:href="#e"/>
  <use x="292.933594" y="644" xlink:href="#b"/>
  <use x="306.742188" y="644" xlink:href="#h"/>
  <use x="316.339844" y="644" xlink:href="#g"/>
  <use x="342.753906" y="644" xlink:href="#v"/>
  <use x="373.640625" y="644" xlink:href="#h"/>
  <use x="383.234375" y="644" xlink:href="#u"/>
  <use x="392.835938" y="644" xlink:href="#f"/>
  <use x="422.007812" y="644" xlink:href="#a"/>
  <use x="441" y="644" xlink:href="#g"/>
  <use x="70" y="672" xlink:href="#t"/>
  <use x="82.183594" y="672" xlink:href="#b"/>
  <use x="95.992188" y="672" xlink:href="#d"/>
  <use x="115.226562" y="672" xlink:href="#f"/>
  <use x="154.152344" y="672" xlink:href="#c"/>
  <use x="167.535156" y="672" xlink:href="#e"/>
  <use x="187.46875" y="672" xlink:href="#a"/>
  <use x="216.207031" y="672" xlink:href="#s"/>
  <use x="239.640625" y="672" xlink:href="#d"/>
  <use x="258.878906" y="672" xlink:href="#r"/>
  <use x="278.8125" y="672" xlink:href="#q"/>
  <use x="308.492188" y="672" xlink:href="#p"/>
  <use x="329.015625" y="672" xlink:href="#b"/>
  <use x="342.820312" y="672" xlink:href="#d"/>
  <use x="362.058594" y="672" xlink:href="#o"/>
  <use x="371.65625" y="672" xlink:href="#a"/>
  <use x="390.648438" y="672" xlink:href="#n"/>
  <use x="407.242188" y="672" xlink:href="#c"/>
 </g>
</svg>
